<svg viewBox="0 0 575 575" class="roots-wrapper">
    <g transform="rotate(0 0 0)">
        <svg viewBoxSize="575" data-root-id="9464815481618"
            xmlns="http://www.w3.org/2000/svg"
            xmlns:xlink="http://www.w3.org/1999/xlink" version="1.1" id="Layer_1" x="177.52" y="138" viewBox="2.086839437484741 2.4195547103881836 91.71708679199219 81.4804458618164" xml:space="preserve" height="195.4102668535668" width="219.96798709236916" preserveAspectRatio="xMinYMin" zoom="1" editorType="buyer" data-layer-role="icon" style="position: absolute; height: 195.41px; width: 219.968px; top: 138px; left: 177.52px;">
            <linearGradient id="SVGID_1_" gradientUnits="userSpaceOnUse" x1="1.5744" y1="35.3857" x2="94.3029" y2="35.3857" name="Layer %{number}" zoom="1" data-layer-id="0077326281618">
                <stop offset="0" style="stop-color: rgb(168, 132, 50); --darkreader-inline-stopcolor:#d0af62;" data-darkreader-inline-stopcolor=""></stop>
                <stop offset="6.264456e-02" style="stop-color: rgb(172, 138, 55); --darkreader-inline-stopcolor:#ccad60;" data-darkreader-inline-stopcolor=""></stop>
                <stop offset="0.1445" style="stop-color: rgb(185, 154, 70); --darkreader-inline-stopcolor:#c0a459;" data-darkreader-inline-stopcolor=""></stop>
                <stop offset="0.2369" style="stop-color: rgb(206, 181, 95); --darkreader-inline-stopcolor:#d1b968;" data-darkreader-inline-stopcolor=""></stop>
                <stop offset="0.3364" style="stop-color: rgb(236, 218, 129); --darkreader-inline-stopcolor:#ebd87a;" data-darkreader-inline-stopcolor=""></stop>
                <stop offset="0.3706" style="stop-color: rgb(247, 233, 142); --darkreader-inline-stopcolor:#f6e680;" data-darkreader-inline-stopcolor=""></stop>
                <stop offset="0.4325" style="stop-color: rgb(238, 220, 129); --darkreader-inline-stopcolor:#edda7a;" data-darkreader-inline-stopcolor=""></stop>
                <stop offset="0.6225" style="stop-color: rgb(213, 183, 94); --darkreader-inline-stopcolor:#d7bb66;" data-darkreader-inline-stopcolor=""></stop>
                <stop offset="0.7235" style="stop-color: rgb(204, 169, 81); --darkreader-inline-stopcolor:#d0af5e;" data-darkreader-inline-stopcolor=""></stop>
                <stop offset="0.7407" style="stop-color: rgb(207, 172, 84); --darkreader-inline-stopcolor:#d2b25f;" data-darkreader-inline-stopcolor=""></stop>
                <stop offset="0.8955" style="stop-color: rgb(225, 190, 104); --darkreader-inline-stopcolor:#e2bf6b;" data-darkreader-inline-stopcolor=""></stop>
                <stop offset="1" style="stop-color: rgb(232, 197, 111); --darkreader-inline-stopcolor:#e8c56e;" data-darkreader-inline-stopcolor=""></stop>
            </linearGradient>
            <path class="st0" d="M17,61.4c0.5,4-3.9,7.6-7.9,6.9c-4-0.7-6.9-4.7-7-8.7C1.9,55.5,4,51.6,7,48.8c2.9-2.8,6.6-4.6,10.3-6.2    c21.3-9.2,44.8-12.3,66.3-21c3.8-1.5,7.8-3.5,9.5-7.2c1.7-3.7,0.2-8.5-3.2-10.7c-3.4-2.2-8.4-1.5-11,1.6" name="Layer %{number}" zoom="1" data-layer-id="0624678381618" style="fill: none; stroke: url(&quot;#SVGID_1_&quot;); stroke-miterlimit: 10; --darkreader-inline-fill:none;" data-darkreader-inline-fill=""></path>
            <linearGradient id="SVGID_2_" gradientUnits="userSpaceOnUse" x1="-52.3153" y1="51.7158" x2="-47.4259" y2="51.7158" gradientTransform="matrix(0.8399 -0.5428 0.5428 0.8399 94.2167 -63.9491)" name="Layer %{number}" zoom="1" data-layer-id="8572684781618">
                <stop offset="0" style="stop-color: rgb(168, 132, 50); --darkreader-inline-stopcolor:#d0af62;" data-darkreader-inline-stopcolor=""></stop>
                <stop offset="6.264456e-02" style="stop-color: rgb(172, 138, 55); --darkreader-inline-stopcolor:#ccad60;" data-darkreader-inline-stopcolor=""></stop>
                <stop offset="0.1445" style="stop-color: rgb(185, 154, 70); --darkreader-inline-stopcolor:#c0a459;" data-darkreader-inline-stopcolor=""></stop>
                <stop offset="0.2369" style="stop-color: rgb(206, 181, 95); --darkreader-inline-stopcolor:#d1b968;" data-darkreader-inline-stopcolor=""></stop>
                <stop offset="0.3364" style="stop-color: rgb(236, 218, 129); --darkreader-inline-stopcolor:#ebd87a;" data-darkreader-inline-stopcolor=""></stop>
                <stop offset="0.3706" style="stop-color: rgb(247, 233, 142); --darkreader-inline-stopcolor:#f6e680;" data-darkreader-inline-stopcolor=""></stop>
                <stop offset="0.4325" style="stop-color: rgb(238, 220, 129); --darkreader-inline-stopcolor:#edda7a;" data-darkreader-inline-stopcolor=""></stop>
                <stop offset="0.6225" style="stop-color: rgb(213, 183, 94); --darkreader-inline-stopcolor:#d7bb66;" data-darkreader-inline-stopcolor=""></stop>
                <stop offset="0.7235" style="stop-color: rgb(204, 169, 81); --darkreader-inline-stopcolor:#d0af5e;" data-darkreader-inline-stopcolor=""></stop>
                <stop offset="0.7407" style="stop-color: rgb(207, 172, 84); --darkreader-inline-stopcolor:#d2b25f;" data-darkreader-inline-stopcolor=""></stop>
                <stop offset="0.8955" style="stop-color: rgb(225, 190, 104); --darkreader-inline-stopcolor:#e2bf6b;" data-darkreader-inline-stopcolor=""></stop>
                <stop offset="1" style="stop-color: rgb(232, 197, 111); --darkreader-inline-stopcolor:#e8c56e;" data-darkreader-inline-stopcolor=""></stop>
            </linearGradient>
            <circle class="st1" cx="80.4" cy="6.6" r="1.9" name="Layer %{number}" zoom="1" data-layer-id="0722207481618" style="fill: none; stroke: url(&quot;#SVGID_2_&quot;); stroke-miterlimit: 10; --darkreader-inline-fill:none;" data-darkreader-inline-fill=""></circle>
            <linearGradient id="SVGID_3_" gradientUnits="userSpaceOnUse" x1="41.4707" y1="42.9063" x2="65.148" y2="42.9063" name="Layer %{number}" zoom="1" data-layer-id="1719969481619">
                <stop offset="0" style="stop-color: rgb(168, 132, 50); --darkreader-inline-stopcolor:#d0af62;" data-darkreader-inline-stopcolor=""></stop>
                <stop offset="6.264456e-02" style="stop-color: rgb(172, 138, 55); --darkreader-inline-stopcolor:#ccad60;" data-darkreader-inline-stopcolor=""></stop>
                <stop offset="0.1445" style="stop-color: rgb(185, 154, 70); --darkreader-inline-stopcolor:#c0a459;" data-darkreader-inline-stopcolor=""></stop>
                <stop offset="0.2369" style="stop-color: rgb(206, 181, 95); --darkreader-inline-stopcolor:#d1b968;" data-darkreader-inline-stopcolor=""></stop>
                <stop offset="0.3364" style="stop-color: rgb(236, 218, 129); --darkreader-inline-stopcolor:#ebd87a;" data-darkreader-inline-stopcolor=""></stop>
                <stop offset="0.3706" style="stop-color: rgb(247, 233, 142); --darkreader-inline-stopcolor:#f6e680;" data-darkreader-inline-stopcolor=""></stop>
                <stop offset="0.4325" style="stop-color: rgb(238, 220, 129); --darkreader-inline-stopcolor:#edda7a;" data-darkreader-inline-stopcolor=""></stop>
                <stop offset="0.6225" style="stop-color: rgb(213, 183, 94); --darkreader-inline-stopcolor:#d7bb66;" data-darkreader-inline-stopcolor=""></stop>
                <stop offset="0.7235" style="stop-color: rgb(204, 169, 81); --darkreader-inline-stopcolor:#d0af5e;" data-darkreader-inline-stopcolor=""></stop>
                <stop offset="0.7407" style="stop-color: rgb(207, 172, 84); --darkreader-inline-stopcolor:#d2b25f;" data-darkreader-inline-stopcolor=""></stop>
                <stop offset="0.8955" style="stop-color: rgb(225, 190, 104); --darkreader-inline-stopcolor:#e2bf6b;" data-darkreader-inline-stopcolor=""></stop>
                <stop offset="1" style="stop-color: rgb(232, 197, 111); --darkreader-inline-stopcolor:#e8c56e;" data-darkreader-inline-stopcolor=""></stop>
            </linearGradient>
            <path class="st2" d="M41.5,60.4V48.9h1.3c1.5,7.5,5,11.2,10.6,11.2c2.5,0,4.5-0.7,5.8-2.2s2.1-3,2.1-4.8c0-1.8-0.6-3.3-1.8-4.5  c-1.2-1.2-3.4-2.5-6.7-3.9c-2.9-1.2-5-2.3-6.5-3.2c-1.5-0.9-2.6-2.1-3.4-3.6c-0.8-1.5-1.2-3.1-1.2-4.7c0-2.6,0.9-4.7,2.7-6.4  s4-2.5,6.7-2.5c1.5,0,2.9,0.2,4.3,0.7c1.3,0.5,2.7,1.5,4.1,3.1c0.8-1,1.3-2,1.4-3.1H62v9.4h-1.2c-0.7-2.7-1.9-4.9-3.6-6.4  s-3.7-2.3-5.9-2.3c-2.1,0-3.7,0.6-4.7,1.7c-1,1.2-1.5,2.4-1.5,3.8c0,1.7,0.6,3.1,1.9,4.2c1.2,1.2,3.5,2.5,6.7,3.9  c3.1,1.4,5.3,2.5,6.7,3.3s2.5,2,3.4,3.5c0.8,1.5,1.3,3.2,1.3,5.1c0,3.1-1,5.6-3.1,7.5s-4.8,2.9-8.2,2.9c-3.9,0-7.2-1.5-9.8-4.5  c-0.6,0.8-1,2-1.3,3.5H41.5z" name="Layer %{number}" zoom="1" data-layer-id="4470010181619" style="fill: url(&quot;#SVGID_3_&quot;);"></path>
            <linearGradient id="SVGID_4_" gradientUnits="userSpaceOnUse" x1="12.6404" y1="44.1939" x2="94.0523" y2="44.1939" name="Layer %{number}" zoom="1" data-layer-id="0431228881619">
                <stop offset="0" style="stop-color: rgb(168, 132, 50); --darkreader-inline-stopcolor:#d0af62;" data-darkreader-inline-stopcolor=""></stop>
                <stop offset="6.264456e-02" style="stop-color: rgb(172, 138, 55); --darkreader-inline-stopcolor:#ccad60;" data-darkreader-inline-stopcolor=""></stop>
                <stop offset="0.1445" style="stop-color: rgb(185, 154, 70); --darkreader-inline-stopcolor:#c0a459;" data-darkreader-inline-stopcolor=""></stop>
                <stop offset="0.2369" style="stop-color: rgb(206, 181, 95); --darkreader-inline-stopcolor:#d1b968;" data-darkreader-inline-stopcolor=""></stop>
                <stop offset="0.3364" style="stop-color: rgb(236, 218, 129); --darkreader-inline-stopcolor:#ebd87a;" data-darkreader-inline-stopcolor=""></stop>
                <stop offset="0.3706" style="stop-color: rgb(247, 233, 142); --darkreader-inline-stopcolor:#f6e680;" data-darkreader-inline-stopcolor=""></stop>
                <stop offset="0.4325" style="stop-color: rgb(238, 220, 129); --darkreader-inline-stopcolor:#edda7a;" data-darkreader-inline-stopcolor=""></stop>
                <stop offset="0.6225" style="stop-color: rgb(213, 183, 94); --darkreader-inline-stopcolor:#d7bb66;" data-darkreader-inline-stopcolor=""></stop>
                <stop offset="0.7235" style="stop-color: rgb(204, 169, 81); --darkreader-inline-stopcolor:#d0af5e;" data-darkreader-inline-stopcolor=""></stop>
                <stop offset="0.7407" style="stop-color: rgb(207, 172, 84); --darkreader-inline-stopcolor:#d2b25f;" data-darkreader-inline-stopcolor=""></stop>
                <stop offset="0.8955" style="stop-color: rgb(225, 190, 104); --darkreader-inline-stopcolor:#e2bf6b;" data-darkreader-inline-stopcolor=""></stop>
                <stop offset="1" style="stop-color: rgb(232, 197, 111); --darkreader-inline-stopcolor:#e8c56e;" data-darkreader-inline-stopcolor=""></stop>
            </linearGradient>
            <circle class="st3" cx="53.3" cy="44.2" r="39.7" name="Layer %{number}" zoom="1" data-layer-id="5154786781619" style="fill: none; stroke: url(&quot;#SVGID_4_&quot;); stroke-width: 2; stroke-miterlimit: 10; --darkreader-inline-fill:none;" data-darkreader-inline-fill=""></circle>
            <linearGradient id="SVGID_5_" gradientUnits="userSpaceOnUse" x1="17.1205" y1="44.1939" x2="89.7695" y2="44.1939" name="Layer %{number}" zoom="1" data-layer-id="5182503681619">
                <stop offset="0" style="stop-color: rgb(168, 132, 50); --darkreader-inline-stopcolor:#d0af62;" data-darkreader-inline-stopcolor=""></stop>
                <stop offset="6.264456e-02" style="stop-color: rgb(172, 138, 55); --darkreader-inline-stopcolor:#ccad60;" data-darkreader-inline-stopcolor=""></stop>
                <stop offset="0.1445" style="stop-color: rgb(185, 154, 70); --darkreader-inline-stopcolor:#c0a459;" data-darkreader-inline-stopcolor=""></stop>
                <stop offset="0.2369" style="stop-color: rgb(206, 181, 95); --darkreader-inline-stopcolor:#d1b968;" data-darkreader-inline-stopcolor=""></stop>
                <stop offset="0.3364" style="stop-color: rgb(236, 218, 129); --darkreader-inline-stopcolor:#ebd87a;" data-darkreader-inline-stopcolor=""></stop>
                <stop offset="0.3706" style="stop-color: rgb(247, 233, 142); --darkreader-inline-stopcolor:#f6e680;" data-darkreader-inline-stopcolor=""></stop>
                <stop offset="0.4325" style="stop-color: rgb(238, 220, 129); --darkreader-inline-stopcolor:#edda7a;" data-darkreader-inline-stopcolor=""></stop>
                <stop offset="0.6225" style="stop-color: rgb(213, 183, 94); --darkreader-inline-stopcolor:#d7bb66;" data-darkreader-inline-stopcolor=""></stop>
                <stop offset="0.7235" style="stop-color: rgb(204, 169, 81); --darkreader-inline-stopcolor:#d0af5e;" data-darkreader-inline-stopcolor=""></stop>
                <stop offset="0.7407" style="stop-color: rgb(207, 172, 84); --darkreader-inline-stopcolor:#d2b25f;" data-darkreader-inline-stopcolor=""></stop>
                <stop offset="0.8955" style="stop-color: rgb(225, 190, 104); --darkreader-inline-stopcolor:#e2bf6b;" data-darkreader-inline-stopcolor=""></stop>
                <stop offset="1" style="stop-color: rgb(232, 197, 111); --darkreader-inline-stopcolor:#e8c56e;" data-darkreader-inline-stopcolor=""></stop>
            </linearGradient>
            <circle class="st4" cx="53.4" cy="44.2" r="35.8" name="Layer %{number}" zoom="1" data-layer-id="2768425581619" style="fill: none; stroke: url(&quot;#SVGID_5_&quot;); stroke-miterlimit: 10; --darkreader-inline-fill:none;" data-darkreader-inline-fill=""></circle>
        </svg>
    </g>
    <g transform="rotate(0 0 0)">
        <svg viewBoxSize="575" data-root-id="9318376381619"
            xmlns="http://www.w3.org/2000/svg" y="433.5636431884766" viewBox="0 0 0 0" x="287.51012023925784" height="0" width="0" fontUrl="http://fonts.gstatic.com/s/montserrat/v24/JTUHjIg1_i6t8kCHKm4532VJOt5-QNFgpCtr6Ew-Y3tcoqK5.ttf" zoom="1" editorType="buyer" data-layer-role="slogan" style="position: absolute; top: 433.564px; width: 0px; height: 0px; left: 287.51px;">
            <g data-horizontal-grow="center" zoom="1" root="[object Object]" style="fill: rgb(204, 169, 81); fill-opacity: 1; --darkreader-inline-fill:#d0af5e;" data-darkreader-inline-fill="">
                <path d="" transform="translate(0, 0)"></path>
            </g>
        </svg>
    </g>
    <g transform="rotate(0 0 0)">
        <svg viewBoxSize="575" data-root-id="6983737781619"
            xmlns="http://www.w3.org/2000/svg" y="388.5636431884766" viewBox="3 14.399999618530273 49.15999984741211 31.03999900817871" x="262.9351215362549" height="31.03999900817871" width="49.15999984741211" fontUrl="http://fonts.gstatic.com/s/martel/v10/PN_xRfK9oXHga0XtYcI-jT3L_w.ttf" zoom="1" editorType="buyer" data-layer-role="brandName" style="position: absolute; top: 388.564px; width: 49.16px; height: 31.04px; left: 262.935px;">
            <g data-horizontal-grow="center" zoom="1" root="[object Object]" style="fill: rgb(204, 169, 81); fill-opacity: 1; --darkreader-inline-fill:#d0af5e;" data-darkreader-inline-fill="">
                <path d="M11.96 45.44Q9.24 45.44 6.60 44.90Q3.96 44.36 3 43.80L3 43.80L3 37.64L4.64 37.64L5.80 41.56Q6.88 42.68 8.64 43.14Q10.40 43.60 12.40 43.60L12.40 43.60Q14.96 43.60 16.82 42.26Q18.68 40.92 18.68 38.24L18.68 38.24Q18.68 36.64 17.70 35.38Q16.72 34.12 15.28 33.16Q13.84 32.20 11.40 30.88L11.40 30.88Q8.80 29.52 7.12 28.38Q5.44 27.24 4.32 25.64Q3.20 24.04 3.20 21.96L3.20 21.96Q3.20 19.40 4.66 17.70Q6.12 16 8.28 15.20Q10.44 14.40 12.64 14.40L12.64 14.40Q15.28 14.40 17.24 14.86Q19.20 15.32 20.24 15.92L20.24 15.92L20.24 21.28L18.64 21.28L17.24 17.48Q16.52 16.84 15.22 16.52Q13.92 16.20 12.40 16.20L12.40 16.20Q11.08 16.20 9.72 16.72Q8.36 17.24 7.42 18.40Q6.48 19.56 6.48 21.36L6.48 21.36Q6.48 23.44 8.22 24.94Q9.96 26.44 13.28 28.12L13.28 28.12Q16.16 29.64 17.88 30.76Q19.60 31.88 20.82 33.50Q22.04 35.12 22.04 37.24L22.04 37.24Q22.04 41.36 19.20 43.40Q16.36 45.44 11.96 45.44L11.96 45.44ZM26.08 43.40L29.32 42.88L29.32 16.80L26.16 16.48L26.16 14.68L36.08 14.68L36.08 16.48L32.88 16.80L32.88 30.56L44.44 16.80L41.36 16.48L41.36 14.68L50.88 14.68L50.88 16.48L47.72 16.80L38.36 27.48Q39.56 28.80 43.32 34.84L43.32 34.84Q45.72 38.68 47.12 40.70Q48.52 42.72 49.04 42.76L49.04 42.76L52.16 43.40L52.16 45L46.36 45Q45.88 45 44.84 43.40Q43.80 41.80 41.68 38.16L41.68 38.16Q39.80 34.84 38.52 32.80Q37.24 30.76 36.32 29.88L36.32 29.88L32.88 33.76L32.88 42.92L36.44 43.40L36.44 45L26.08 45L26.08 43.40Z" transform="translate(0, 0)"></path>
            </g>
        </svg>
    </g>
</svg>